<svg width="512" height="512" viewBox="0 0 512 512" fill="none" xmlns="http://www.w3.org/2000/svg">
<rect width="512" height="512" fill="#0D0D0D"/>
<path d="M131 414V99H235.175C256.925 99 277.325 103.125 296.375 111.375C315.425 119.475 332.15 130.8 346.55 145.35C360.95 159.75 372.2 176.475 380.3 195.525C388.55 214.425 392.675 234.75 392.675 256.5C392.675 278.25 388.55 298.65 380.3 317.7C372.2 336.6 360.95 353.325 346.55 367.875C332.15 382.275 315.425 393.6 296.375 401.85C277.325 409.95 256.925 414 235.175 414H131ZM162.5 382.5H235.175C252.575 382.5 268.85 379.275 284 372.825C299.3 366.225 312.725 357.15 324.275 345.6C335.825 334.05 344.825 320.7 351.275 305.55C357.875 290.25 361.175 273.9 361.175 256.5C361.175 239.1 357.875 222.825 351.275 207.675C344.825 192.375 335.75 178.95 324.05 167.4C312.5 155.85 299.15 146.85 284 140.4C268.85 133.8 252.575 130.5 235.175 130.5H162.5V382.5Z" fill="white"/>
</svg>
